<svg width="40" height="40" viewBox="0 0 40 40" fill="none" xmlns="http://www.w3.org/2000/svg">
<path d="M2.51722 21.228C3.23526 12.2087 10.7991 5.08772 20 5.08772C29.2008 5.08772 36.7646 12.2087 37.4827 21.228H38.8899C38.1685 11.4342 29.9749 3.6842 20 3.6842C10.025 3.6842 1.83144 11.4342 1.11011 21.228H2.51722Z" fill="#FF507D"/>
<path d="M25.0981 4.38599H14.9019C13.1899 4.86521 11.5762 5.57895 10.0959 6.49122H13.138C15.247 5.59067 17.5651 5.08778 20 5.08778C22.4349 5.08778 24.753 5.59067 26.862 6.4913H29.9041C28.4238 5.57903 26.81 4.86521 25.0981 4.38599Z" fill="#D23C69"/>
<path d="M2.80703 24.386H0.701719C0.313828 24.386 0 24.0718 0 23.6843V21.579C0 21.1915 0.313828 20.8773 0.701719 20.8773H2.80703C3.19492 20.8773 3.50875 21.1915 3.50875 21.579V23.6843C3.50875 24.0718 3.19492 24.386 2.80703 24.386ZM1.40352 22.9825H2.10523V22.2808H1.40352V22.9825Z" fill="#707487"/>
<path d="M38.5964 22.2807V22.9824H37.8947V22.2807H38.5964ZM39.2982 20.8772H37.1929C36.8054 20.8772 36.4912 21.1914 36.4912 21.5789V23.6842C36.4912 24.0717 36.8054 24.3859 37.1929 24.3859H39.2982C39.6857 24.3859 39.9999 24.0717 39.9999 23.6842V21.5789C40 21.1914 39.6857 20.8772 39.2982 20.8772Z" fill="#707487"/>
<path d="M38.2456 3.6842H1.75439V5.08772H38.2456V3.6842Z" fill="#464655"/>
<path d="M21.0526 6.14039H18.9473C18.5597 6.14039 18.2456 5.82617 18.2456 5.43867V3.33343C18.2456 2.94585 18.5598 2.63171 18.9473 2.63171H21.0526C21.4401 2.63171 21.7543 2.94593 21.7543 3.33343V5.43867C21.7543 5.82624 21.4401 6.14039 21.0526 6.14039Z" fill="#5B5D6E"/>
<path d="M1.75437 6.14034C2.72329 6.14034 3.50875 5.35488 3.50875 4.38597C3.50875 3.41705 2.72329 2.63159 1.75437 2.63159C0.78546 2.63159 0 3.41705 0 4.38597C0 5.35488 0.78546 6.14034 1.75437 6.14034Z" fill="#5B5D6E"/>
<path d="M38.2456 6.14034C39.2145 6.14034 40 5.35488 40 4.38597C40 3.41705 39.2145 2.63159 38.2456 2.63159C37.2767 2.63159 36.4912 3.41705 36.4912 4.38597C36.4912 5.35488 37.2767 6.14034 38.2456 6.14034Z" fill="#5B5D6E"/>
<path d="M21.573 7.89478H21.4036C21.016 7.89478 20.7019 8.20899 20.7019 8.59649V22.6265C20.7019 22.8905 20.8507 23.1314 21.0874 23.2482C22.0302 23.7138 22.6337 24.7579 22.4095 25.9247C22.2319 26.8485 21.5025 27.6152 20.5859 27.827C18.975 28.1992 17.544 26.9859 17.544 25.4385C17.544 24.4717 18.1063 23.6436 18.9193 23.245C19.154 23.13 19.2984 22.8878 19.2984 22.6265V8.59649C19.2984 8.20892 18.9841 7.89478 18.5966 7.89478H18.4272C18.1124 7.89478 17.8363 8.10423 17.7514 8.40735L13.1424 24.8678C13.0413 25.2291 13.0868 25.6123 13.2729 25.9381C13.9209 27.0721 15.557 30.042 17.1931 33.8597H22.8072C24.4434 30.042 26.0795 27.072 26.7273 25.9381C26.9135 25.6124 26.9589 25.2291 26.8578 24.8678L22.249 8.40735C22.1641 8.10423 21.8878 7.89478 21.573 7.89478Z" fill="#C7CFE2"/>
<path d="M20.7017 8.59645V22.6264C20.7017 22.8904 20.8505 23.1314 21.0872 23.2482C21.7896 23.595 22.3024 24.2633 22.4262 25.0639L21.4035 7.89465C21.0159 7.89473 20.7017 8.20895 20.7017 8.59645Z" fill="#AFB9D2"/>
<path d="M23.5088 37.3684H16.4913C16.1037 37.3684 15.7896 37.0542 15.7896 36.6667V34.5615C15.7896 34.1739 16.1038 33.8597 16.4913 33.8597H23.5088C23.8964 33.8597 24.2106 34.174 24.2106 34.5615V36.6667C24.2106 37.0542 23.8964 37.3684 23.5088 37.3684Z" fill="#FF507D"/>
<path d="M18.5966 36.6667V34.5615C18.5966 34.1739 18.9108 33.8597 19.2983 33.8597H16.4913C16.1037 33.8597 15.7896 34.174 15.7896 34.5615V36.6667C15.7896 37.0543 16.1038 37.3684 16.4913 37.3684H19.2983C18.9108 37.3685 18.5966 37.0543 18.5966 36.6667Z" fill="#D23C69"/>
<path d="M18.7548 31.9634C18.1116 29.8982 17.2289 27.4448 16.7795 26.2181C16.5895 25.6993 16.5264 25.1468 16.5923 24.5982L18.5966 7.89478H18.4272C18.1124 7.89478 17.8362 8.10423 17.7514 8.40735L13.1424 24.8678C13.0412 25.2291 13.0868 25.6124 13.273 25.9381C13.9209 27.0721 15.5571 30.0421 17.1931 33.8597H22.8072C23.0137 33.3776 23.2203 32.9092 23.425 32.4562H19.424C19.1159 32.4562 18.8463 32.2574 18.7548 31.9634Z" fill="#AFB9D2"/>
</svg>
