<svg width="40" height="40" viewBox="0 0 40 40" fill="none" xmlns="http://www.w3.org/2000/svg">
<g clip-path="url(#clip0_38_4404)">
<path d="M23.3468 18.7797L15.2655 13.0468C14.3979 12.431 13.1952 12.6354 12.5795 13.5034L12.4998 13.6155C11.8844 14.4832 12.0886 15.6858 12.9565 16.3015L21.0376 22.0348C21.9055 22.6503 23.1079 22.446 23.7237 21.5782L23.8032 21.4659C24.4192 20.598 24.2145 19.3954 23.3468 18.7797Z" fill="#F39A2B"/>
<path d="M22.8541 16.5388L22.7419 16.4593C21.874 15.8436 20.6714 16.0481 20.0557 16.9159L10.8986 29.8232C10.2829 30.6909 10.4874 31.8937 11.3553 32.5092L11.4674 32.5889C12.3353 33.2046 13.5379 33.0002 14.1534 32.1323L23.3106 19.225C23.9265 18.357 23.722 17.1546 22.8541 16.5388Z" fill="#E5594F"/>
<path d="M34.8305 20.5127C34.8164 22.47 34.514 24.0974 33.7562 26.08C33.2394 27.4325 32.0285 29.29 31.0012 30.4202C28.5405 33.1276 25.045 34.8456 21.5961 35.1707C17.6596 35.5419 14.189 34.488 10.9989 32.1024C11.2977 32.3259 10.7045 31.852 10.7231 31.8676C10.5449 31.7184 10.3728 31.5622 10.2009 31.4058C9.85699 31.0931 9.53269 30.7599 9.2155 30.4204C8.5066 29.6614 8.19253 29.228 7.59679 28.2772C6.53781 26.5872 6.00679 25.1412 5.60433 23.1C5.44749 22.305 5.39359 21.5452 5.38613 20.5128C5.36539 17.6484 0.921674 17.6464 0.942455 20.5128C1.00523 29.2037 6.96191 36.9248 15.3992 39.0954C23.8555 41.2711 32.9398 37.1713 37.0363 29.504C38.5111 26.7437 39.2518 23.6359 39.2743 20.5127C39.2949 17.6463 34.8512 17.6483 34.8305 20.5127Z" fill="#1B92D1"/>
<path d="M5.38601 19.5885C5.40015 17.6313 5.70253 16.004 6.46031 14.0213C6.97722 12.6689 8.18816 10.8114 9.21539 9.68116C11.6761 6.97378 15.1713 5.25577 18.6204 4.93057C22.5568 4.55948 26.0277 5.61335 29.2177 7.99909C28.9188 7.77561 29.5119 8.2494 29.4934 8.23385C29.6716 8.38303 29.8437 8.53936 30.0157 8.69569C30.3596 9.00819 30.684 9.34159 31.0012 9.68104C31.71 10.44 32.0241 10.8735 32.6198 11.8242C33.6789 13.5142 34.21 14.9602 34.6124 17.0013C34.7692 17.7963 34.8232 18.5562 34.8306 19.5885C34.8512 22.453 39.2949 22.4551 39.2743 19.5885C39.2115 10.8975 33.2545 3.17663 24.8173 1.00589C16.361 -1.1699 7.27687 2.9301 3.18042 10.5973C1.7057 13.3576 0.964995 16.4653 0.942456 19.5885C0.921597 22.4551 5.36531 22.453 5.38601 19.5885Z" fill="#00EE7A"/>
</g>
<defs>
<clipPath id="clip0_38_4404">
<rect width="40" height="40" fill="white"/>
</clipPath>
</defs>
</svg>
