<svg width="40" height="40" viewBox="0 0 40 40" fill="none" xmlns="http://www.w3.org/2000/svg">
<g clip-path="url(#clip0_37_4298)">
<path d="M32.0084 28.0601C32.0084 25.1831 29.6672 22.8418 26.7901 22.8418C23.913 22.8418 21.5718 25.1831 21.5718 28.0601C21.5718 30.9372 23.913 33.2785 26.7901 33.2785C29.6672 33.2785 32.0084 30.9372 32.0084 28.0601Z" fill="#5CB0FF"/>
<path d="M17.8445 32.533V18.369H25.8563C25.859 18.5158 25.8692 18.6593 25.8692 18.8073C25.8692 19.2193 26.2027 19.5527 26.6147 19.5527C27.0268 19.5527 27.3602 19.2193 27.3602 18.8073C27.3602 18.6593 27.349 18.5159 27.3463 18.369H32.0085H33.0612H33.4995C33.4995 9.73705 26.4764 2.71399 17.8445 2.71399H16.3535V2.78952C8.41876 3.54333 2.18945 10.2403 2.18945 18.369C2.18945 27.0009 9.21251 34.024 17.8445 34.024C18.2565 34.024 18.5899 33.6906 18.5899 33.2785C18.5899 32.8665 18.2565 32.533 17.8445 32.533ZM16.3535 32.2862C12.6394 31.0864 9.81966 25.5034 9.81966 18.8073C9.81966 18.6593 9.82989 18.5158 9.83263 18.369H16.3535V32.2862ZM9.90839 16.878C10.3901 11.0622 13.0035 6.41112 16.3535 5.32899V16.8781L9.90839 16.878ZM17.8445 16.878V5.08218C21.8855 5.08218 25.2293 10.2224 25.7805 16.878H17.8445ZM31.9284 16.878H27.275C26.8299 11.2905 24.4869 6.64804 21.3113 4.65199C26.9803 6.08639 31.3033 10.9324 31.9284 16.878ZM14.3776 4.65199C11.202 6.64804 8.85902 11.2905 8.4139 16.878H3.76054C4.38563 10.9324 8.70864 6.08639 14.3776 4.65199ZM3.68041 18.369H8.3426C8.33995 18.5159 8.32871 18.6593 8.32871 18.8073C8.32871 24.1249 10.0465 28.8073 12.6382 31.5289C7.39942 29.4486 3.68041 24.3398 3.68041 18.369Z" fill="#1C71DA"/>
<path d="M35.6921 35.9081L32.0272 32.2432C32.9461 31.095 33.4994 29.642 33.4994 28.0602C33.4994 24.3605 30.4898 21.351 26.7901 21.351C23.0904 21.351 20.0808 24.3605 20.0808 28.0602C20.0808 31.76 23.0904 34.7695 26.7901 34.7695C28.3718 34.7695 29.8248 34.2162 30.973 33.2973L34.638 36.9623L35.6921 35.9081ZM21.5717 28.0602C21.5717 25.1831 23.913 22.8419 26.7901 22.8419C29.6672 22.8419 32.0084 25.1831 32.0084 28.0602C32.0084 30.9373 29.6672 33.2786 26.7901 33.2786C23.913 33.2786 21.5717 30.9373 21.5717 28.0602Z" fill="#1C71DA"/>
<path d="M0.745472 5.66276C0.554742 5.66276 0.363806 5.58996 0.218401 5.44435C-0.0728004 5.15334 -0.0728004 4.68123 0.218401 4.39021L2.85414 1.75466C3.14535 1.46345 3.61746 1.46345 3.90828 1.75466C4.19949 2.04567 4.19949 2.51778 3.90828 2.8088L1.27254 5.44435C1.12695 5.58996 0.936202 5.66276 0.745472 5.66276Z" fill="#FF5D5D"/>
<path d="M3.38121 5.66276C3.19048 5.66276 2.99974 5.58996 2.85414 5.44435L0.218401 2.8088C-0.0728004 2.51778 -0.0728004 2.04567 0.218401 1.75466C0.50923 1.46345 0.981359 1.46345 1.27254 1.75466L3.90828 4.39021C4.19949 4.68123 4.19949 5.15334 3.90828 5.44435C3.76286 5.58996 3.57194 5.66276 3.38121 5.66276Z" fill="#FF5D5D"/>
<path d="M2.60917 38.4637C1.17045 38.4637 0 37.2932 0 35.8545C0 34.4158 1.17045 33.2454 2.60917 33.2454C4.04788 33.2454 5.21833 34.4158 5.21833 35.8545C5.21833 37.2932 4.04788 38.4637 2.60917 38.4637ZM2.60917 34.7363C1.99255 34.7363 1.49095 35.2379 1.49095 35.8545C1.49095 36.4711 1.99255 36.9727 2.60917 36.9727C3.22579 36.9727 3.72738 36.4711 3.72738 35.8545C3.72738 35.2379 3.22579 34.7363 2.60917 34.7363Z" fill="#00D40B"/>
<path d="M37.1461 12.1163C36.9485 12.1163 36.7588 12.0377 36.6191 11.8979L34.5104 9.78923C34.3706 9.64945 34.292 9.45981 34.292 9.26216C34.292 9.06452 34.3706 8.87487 34.5104 8.73509L36.6191 6.6266C36.9103 6.3354 37.382 6.3354 37.6732 6.6266L39.7817 8.73509C40.0729 9.02611 40.0729 9.49822 39.7817 9.78923L37.6732 11.8979C37.5334 12.0377 37.3438 12.1163 37.1461 12.1163ZM36.0918 9.26218L37.1461 10.3165L38.2005 9.26218L37.1461 8.20785L36.0918 9.26218Z" fill="#FFC504"/>
</g>
<defs>
<clipPath id="clip0_37_4298">
<rect width="40" height="40" fill="white"/>
</clipPath>
</defs>
</svg>
