<svg width="20" height="20" viewBox="0 0 20 20" fill="none" xmlns="http://www.w3.org/2000/svg">
<path d="M9.99756 0.622559C6.20801 0.622559 3.12378 3.70802 3.12378 7.49756C3.12378 14.1655 9.6106 19.2346 9.6106 19.2346C9.83848 19.4161 10.1615 19.4161 10.3894 19.2346C10.3894 19.2346 16.8775 14.1655 16.8774 7.49756C16.8774 3.70802 13.7871 0.622559 9.99756 0.622559ZM9.99756 4.37378C11.716 4.37378 13.1262 5.77908 13.1262 7.49756C13.1262 9.21606 11.7161 10.625 9.99756 10.625C8.27906 10.625 6.87377 9.21606 6.87378 7.49756C6.87378 5.77908 8.27908 4.37378 9.99756 4.37378Z" fill="#FBBC05"/>
</svg>
