<svg version="1.1" viewBox="0 0 24 24" xml:space="preserve" xmlns="http://www.w3.org/2000/svg">
    <path fill="#ffffff"
        d="M8.2,3H5.8C4.3,3,3,4.3,3,5.8v2.3C3,9.7,4.3,11,5.8,11h2.3C9.7,11,11,9.7,11,8.2V5.8C11,4.3,9.7,3,8.2,3z M9,8.2    C9,8.6,8.6,9,8.2,9H5.8C5.4,9,5,8.6,5,8.2V5.8C5,5.4,5.4,5,5.8,5h2.3C8.6,5,9,5.4,9,5.8V8.2z" />
    <path fill="#ffffff"
        d="M18.2,3h-2.3C14.3,3,13,4.3,13,5.8v2.3c0,1.6,1.3,2.8,2.8,2.8h2.3c1.6,0,2.8-1.3,2.8-2.8V5.8C21,4.3,19.7,3,18.2,3z     M19,8.2C19,8.6,18.6,9,18.2,9h-2.3C15.4,9,15,8.6,15,8.2V5.8C15,5.4,15.4,5,15.8,5h2.3C18.6,5,19,5.4,19,5.8V8.2z" />
    <path fill="#ffffff"
        d="m18.2 13h-2.3c-1.6 0-2.8 1.3-2.8 2.8v2.3c0 1.6 1.3 2.8 2.8 2.8h2.3c1.6 0 2.8-1.3 2.8-2.8v-2.3c0-1.5-1.3-2.8-2.8-2.8zm0.8 5.2c0 0.5-0.4 0.8-0.8 0.8h-2.3c-0.5 0-0.8-0.4-0.8-0.8v-2.3c0-0.5 0.4-0.8 0.8-0.8h2.3c0.5 0 0.8 0.4 0.8 0.8v2.3z" />
    <path fill="#ffffff"
        d="M8.2,13H5.8C4.3,13,3,14.3,3,15.8v2.3C3,19.7,4.3,21,5.8,21h2.3c1.6,0,2.8-1.3,2.8-2.8v-2.3C11,14.3,9.7,13,8.2,13z     M9,18.2C9,18.6,8.6,19,8.2,19H5.8C5.4,19,5,18.6,5,18.2v-2.3C5,15.4,5.4,15,5.8,15h2.3C8.6,15,9,15.4,9,15.8V18.2z" />
</svg>