<svg width="24" height="24" viewBox="0 0 24 24" fill="none" xmlns="http://www.w3.org/2000/svg">
<path d="M18.4655 13.5C19.8633 13.5 20.9963 14.6961 20.9963 16.1715V17.2461C20.9963 18.5447 20.4593 19.7785 19.5259 20.6244C17.7651 22.2201 15.2451 23 11.9945 23C8.74434 23 6.2261 22.2204 4.46818 20.625C3.53614 19.7792 3 18.5462 3 17.2488V16.1715C3 14.6961 4.13308 13.5 5.53081 13.5H18.4655Z" fill="#00EE7A"/>
<path d="M11.8908 1.00717L12.0004 1C12.4093 1 12.7472 1.29547 12.8007 1.67883L12.808 1.78541L12.8072 2.56977L16.5769 2.5703C17.9152 2.5703 19 3.62522 19 4.92652V9.64378C19 10.9451 17.9152 12 16.5769 12H7.42308C6.08485 12 5 10.9451 5 9.64378V4.92652C5 3.62522 6.08485 2.5703 7.42308 2.5703L11.1918 2.56977L11.1927 1.78541C11.1927 1.38779 11.4965 1.05918 11.8908 1.00717ZM9.57616 5.71193C8.83312 5.71193 8.23077 6.29766 8.23077 7.0202C8.23077 7.74273 8.83312 8.32847 9.57616 8.32847C10.3192 8.32847 10.9215 7.74273 10.9215 7.0202C10.9215 6.29766 10.3192 5.71193 9.57616 5.71193ZM14.4145 5.71193C13.6715 5.71193 13.0691 6.29766 13.0691 7.0202C13.0691 7.74273 13.6715 8.32847 14.4145 8.32847C15.1575 8.32847 15.7599 7.74273 15.7599 7.0202C15.7599 6.29766 15.1575 5.71193 14.4145 5.71193Z" fill="white"/>
</svg>
