<svg width="24" height="24" viewBox="0 0 24 24" fill="none" xmlns="http://www.w3.org/2000/svg">
    <path fill-rule="evenodd" clip-rule="evenodd"
        d="M15.5356 14.65C15.78 14.8937 15.78 15.2938 15.5356 15.5375C15.2919 15.7813 14.8956 15.7813 14.6513 15.5375L12.0037 12.8875L9.33749 15.5562C9.09124 15.8 8.69252 15.8 8.44627 15.5562C8.20064 15.3062 8.20064 14.9063 8.44627 14.6625L11.1125 11.9937L8.465 9.35001C8.22062 9.10626 8.22062 8.70623 8.465 8.46248C8.70812 8.21873 9.10437 8.21873 9.34875 8.46248L11.9963 11.1125L14.6825 8.42502C14.9287 8.18127 15.3269 8.18127 15.5731 8.42502C15.8187 8.67502 15.8187 9.06873 15.5731 9.31873L12.8875 12.0063L15.5356 14.65ZM12 2C6.47688 2 2 6.475 2 12C2 17.525 6.47688 22 12 22C17.5231 22 22 17.525 22 12C22 6.475 17.5231 2 12 2Z"
        fill="#ffffff" />
</svg>