<svg width="24" height="24" viewBox="0 0 24 24" fill="none" xmlns="http://www.w3.org/2000/svg">
<path d="M5.51709 21.965L18.3787 9.10303L20.339 11.0633C20.339 11.0633 17.7753 13.3436 17.954 18.4383L5.51709 21.965Z" fill="white"/>
<path d="M5.51709 21.9649L18.3787 9.10289L16.4184 7.14258C16.4184 7.14258 14.1382 9.70627 9.04345 9.52758L5.51709 21.9649Z" fill="white"/>
<path d="M14 13.5L5.5 22" stroke="black"/>
<path d="M17.8248 3.48193L24 9.65711L21.2219 11.9462L15.5356 6.26003L17.8248 3.48193Z" fill="#E21B1B"/>
<path d="M13.1726 12.6325C12.7136 13.0916 12.717 13.8393 13.1803 14.3026C13.6436 14.7659 14.3913 14.7693 14.8504 14.3103C15.3095 13.8512 15.3061 13.1034 14.8428 12.6401C14.3795 12.1768 13.6317 12.1734 13.1726 12.6325Z" fill="black"/>
<path d="M5.52759 21.9418C4.11122 21.5683 2.91445 20.622 2.22487 19.3301C0.723047 16.4532 1.80834 12.2528 2.75508 9.34353C3.96891 5.61725 0.03975 2.66342 0 2.6337L0.439172 2.03516C1.21608 2.64266 1.89712 3.3627 2.46042 4.17233C3.68653 5.94205 4.03392 7.80983 3.45989 9.57392C2.04281 13.9341 1.85367 17.0127 2.88398 18.9864C3.48403 20.0996 4.57572 20.6823 5.8 21L6.55 21.7L5.52759 21.9418Z" fill="white"/>
</svg>
