<svg width="24" height="24" viewBox="0 0 24 24" fill="none" xmlns="http://www.w3.org/2000/svg">
<path fill-rule="evenodd" clip-rule="evenodd" d="M11.771 12.1564C11.771 10.2867 13.2867 8.771 15.1564 8.771C17.0261 8.771 18.5418 10.2867 18.5418 12.1564C18.5418 14.0261 17.0261 15.5418 15.1564 15.5418C13.2867 15.5418 11.771 14.0261 11.771 12.1564Z" fill="#1ABCFE"/>
<path fill-rule="evenodd" clip-rule="evenodd" d="M5 18.9269C5 17.0572 6.5157 15.5415 8.38542 15.5415H11.7708V18.9269C11.7708 20.7966 10.2551 22.3123 8.38542 22.3123C6.5157 22.3123 5 20.7966 5 18.9269Z" fill="#0ACF83"/>
<path fill-rule="evenodd" clip-rule="evenodd" d="M11.771 2V8.77083H15.1564C17.0261 8.77083 18.5418 7.2551 18.5418 5.38542C18.5418 3.5157 17.0261 2 15.1564 2H11.771Z" fill="#FF7262"/>
<path fill-rule="evenodd" clip-rule="evenodd" d="M5 5.38542C5 7.2551 6.5157 8.77083 8.38542 8.77083H11.7708V2H8.38542C6.5157 2 5 3.5157 5 5.38542Z" fill="#F24E1E"/>
<path fill-rule="evenodd" clip-rule="evenodd" d="M5 12.1564C5 14.0261 6.5157 15.5418 8.38542 15.5418H11.7708V8.771H8.38542C6.5157 8.771 5 10.2867 5 12.1564Z" fill="#A259FF"/>
</svg>
