<svg width="20" height="20" viewBox="0 0 20 20" fill="none" xmlns="http://www.w3.org/2000/svg">
<path d="M2.5 3.83333C2.5 3.36662 2.5 3.13327 2.59082 2.95501C2.67072 2.79821 2.79821 2.67072 2.95501 2.59082C3.13327 2.5 3.36662 2.5 3.83333 2.5H16.1667C16.6334 2.5 16.8668 2.5 17.045 2.59082C17.2018 2.67072 17.3293 2.79821 17.4092 2.95501C17.5 3.13327 17.5 3.36662 17.5 3.83333V5.28105C17.5 5.48487 17.5 5.58678 17.477 5.68269C17.4566 5.76772 17.4229 5.84901 17.3772 5.92357C17.3257 6.00767 17.2536 6.07973 17.1095 6.22386L12.0572 11.2762C11.9131 11.4202 11.841 11.4923 11.7895 11.5764C11.7437 11.651 11.7101 11.7323 11.6897 11.8173C11.6667 11.9133 11.6667 12.0152 11.6667 12.2189V14.1667L8.33333 17.5V12.2189C8.33333 12.0152 8.33333 11.9133 8.31031 11.8173C8.28989 11.7323 8.25622 11.651 8.21053 11.5764C8.159 11.4923 8.08693 11.4202 7.94281 11.2762L2.89053 6.22386C2.7464 6.07973 2.67433 6.00767 2.6228 5.92357C2.57711 5.84901 2.54344 5.76772 2.52303 5.68269C2.5 5.58678 2.5 5.48487 2.5 5.28105V3.83333Z" stroke="white" stroke-width="1.5" stroke-linecap="round" stroke-linejoin="round"/>
</svg>
