<svg width="800" height="800" viewBox="0 0 800 800" fill="none" xmlns="http://www.w3.org/2000/svg">
<g clip-path="url(#clip0_152_2)">
<mask id="mask0_152_2" style="mask-type:luminance" maskUnits="userSpaceOnUse" x="0" y="114" width="800" height="572">
<path d="M742.857 114.286H57.1429C25.5837 114.286 0 139.869 0 171.429V628.571C0 660.13 25.5837 685.714 57.1429 685.714H742.857C774.416 685.714 800 660.13 800 628.571V171.429C800 139.869 774.416 114.286 742.857 114.286Z" fill="white"/>
</mask>
<g mask="url(#mask0_152_2)">
<path d="M813.6 121H26.4C-5.30115 121 -31 143.42 -31 171.077V628.923C-31 656.58 -5.30115 679 26.4 679H813.6C845.301 679 871 656.58 871 628.923V171.077C871 143.42 845.301 121 813.6 121Z" fill="white" stroke="#F5F5F5" stroke-width="14.2857"/>
<mask id="mask1_152_2" style="mask-type:alpha" maskUnits="userSpaceOnUse" x="0" y="114" width="800" height="572">
<path d="M742.857 121.428H57.1429C29.5286 121.428 7.14288 143.814 7.14288 171.428V628.571C7.14288 656.186 29.5286 678.571 57.1429 678.571H742.857C770.471 678.571 792.857 656.186 792.857 628.571V171.428C792.857 143.814 770.471 121.428 742.857 121.428Z" fill="white" stroke="white" stroke-width="14.2857"/>
</mask>
<g mask="url(#mask1_152_2)">
<path fill-rule="evenodd" clip-rule="evenodd" d="M0 304.762H800V114.286H0V304.762Z" fill="#04AAC8"/>
<path fill-rule="evenodd" clip-rule="evenodd" d="M0 685.714H800V495.237H0V685.714Z" fill="#23C840"/>
<path fill-rule="evenodd" clip-rule="evenodd" d="M133.334 266.667C145.085 266.667 156.007 263.12 165.089 257.038C164.037 257.107 162.975 257.143 161.905 257.143C135.606 257.143 114.286 235.823 114.286 209.524C114.286 183.224 135.606 161.905 161.905 161.905C162.975 161.905 164.037 161.94 165.089 162.009C156.007 155.928 145.085 152.381 133.334 152.381C101.775 152.381 76.1912 177.965 76.1912 209.524C76.1912 241.083 101.775 266.667 133.334 266.667ZM228.572 247.619C228.572 258.139 220.044 266.667 209.524 266.667C199.005 266.667 190.477 258.139 190.477 247.619C190.477 237.099 199.005 228.571 209.524 228.571C220.044 228.571 228.572 237.099 228.572 247.619ZM285.714 190.476C296.234 190.476 304.763 181.948 304.763 171.428C304.763 160.909 296.234 152.381 285.714 152.381C275.195 152.381 266.667 160.909 266.667 171.428C266.667 181.948 275.195 190.476 285.714 190.476ZM380.954 171.428C380.954 181.948 372.426 190.476 361.906 190.476C351.386 190.476 342.857 181.948 342.857 171.428C342.857 160.909 351.386 152.381 361.906 152.381C372.426 152.381 380.954 160.909 380.954 171.428ZM361.906 266.667C372.426 266.667 380.954 258.139 380.954 247.619C380.954 237.099 372.426 228.571 361.906 228.571C351.386 228.571 342.857 237.099 342.857 247.619C342.857 258.139 351.386 266.667 361.906 266.667ZM304.763 247.619C304.763 258.139 296.234 266.667 285.714 266.667C275.195 266.667 266.667 258.139 266.667 247.619C266.667 237.099 275.195 228.571 285.714 228.571C296.234 228.571 304.763 237.099 304.763 247.619Z" fill="white"/>
</g>
</g>
</g>
<defs>
<clipPath id="clip0_152_2">
<rect width="800" height="800" fill="white"/>
</clipPath>
</defs>
</svg>
