<svg width="20" height="20" viewBox="0 0 20 20" fill="none" xmlns="http://www.w3.org/2000/svg">
<path d="M14.7884 5.14221L10.2981 8.64655L5.70508 5.14221V5.14316L5.71063 5.1479V10.0549L10.2463 13.6349L14.7884 10.1931V5.14221Z" fill="#EA4335"/>
<path d="M15.9673 4.28979L14.7881 5.14219V10.1931L18.4987 7.34425V5.62805C18.4987 5.62805 18.0483 3.17693 15.9673 4.28979Z" fill="#FBBC05"/>
<path d="M14.7881 10.1931V16.7443H17.6321C17.6321 16.7443 18.4414 16.661 18.4996 15.7385V7.34424L14.7881 10.1931Z" fill="#34A853"/>
<path d="M5.71245 16.7501V10.0549L5.70508 10.0502L5.71245 16.7501Z" fill="#C5221F"/>
<path d="M5.7051 5.14303L4.53235 4.29537C2.45134 3.18251 2 5.63269 2 5.63269V7.34883L5.7051 10.05V5.14303Z" fill="#C5221F"/>
<path d="M5.70508 5.14331V10.0503L5.71245 10.0551V5.14805L5.70508 5.14331Z" fill="#C5221F"/>
<path d="M2 7.3501V15.7443C2.05734 16.6678 2.86755 16.7502 2.86755 16.7502H5.71158L5.7051 10.0503L2 7.3501Z" fill="#4285F4"/>
</svg>
