<svg width="20" height="20" viewBox="0 0 20 20" fill="none" xmlns="http://www.w3.org/2000/svg">
<g clip-path="url(#clip0_142_25)">
<path d="M16.1281 4.99744V4.99807C16.1281 5.61932 15.6243 6.12244 15.0037 6.12244C14.3831 6.12244 13.8793 5.61869 13.8793 4.99807C13.8793 4.37682 14.3831 3.87369 15.0037 3.87369C15.6243 3.87432 16.1274 4.37682 16.1281 4.99744ZM9.99994 13.1243C8.27432 13.1243 6.87557 11.7256 6.87557 9.99994C6.87557 8.27432 8.27432 6.87557 9.99994 6.87557C11.7256 6.87557 13.1243 8.27432 13.1243 9.99994C13.1243 11.7249 11.7262 13.1237 10.0012 13.1237H10.0006L9.99994 13.1243ZM9.99994 5.18744C7.34182 5.18744 5.18744 7.34244 5.18744 9.99994C5.18744 12.6574 7.34244 14.8124 9.99994 14.8124C12.6581 14.8124 14.8124 12.6574 14.8124 9.99994C14.8124 9.99994 14.8124 9.99994 14.8124 9.99932C14.8124 7.34182 12.6581 5.18682 9.99994 5.18682C9.99994 5.18682 9.99994 5.18682 9.99932 5.18682L9.99994 5.18744ZM9.99994 2.31494C12.5018 2.31494 12.7999 2.32744 13.7881 2.37057C14.4149 2.37807 15.0112 2.49682 15.5631 2.70682L15.5274 2.69494C16.3487 3.01494 16.9862 3.65244 17.2993 4.45244L17.3068 4.47369C17.5043 4.98994 17.6218 5.58682 17.6293 6.20994V6.21307C17.6737 7.20182 17.6837 7.49869 17.6837 10.0012C17.6837 12.5037 17.6718 12.8012 17.6262 13.7893C17.6143 14.4168 17.4949 15.0131 17.2856 15.5649L17.2974 15.5287C17.1362 15.9512 16.8974 16.3112 16.5956 16.6074L16.5949 16.6081C16.2993 16.9106 15.9393 17.1493 15.5374 17.3012L15.5174 17.3081C14.9993 17.5056 14.4006 17.6231 13.7749 17.6306H13.7718C12.7768 17.6749 12.4837 17.6849 9.97682 17.6849C7.46869 17.6849 7.17619 17.6731 6.18182 17.6274C5.55182 17.6156 4.95307 17.4962 4.39869 17.2868L4.43557 17.2987C4.01307 17.1399 3.65307 16.9006 3.35932 16.5974L3.35869 16.5968C3.05307 16.3031 2.81307 15.9424 2.66244 15.5387L2.65619 15.5193C2.45932 15.0018 2.33994 14.4037 2.32807 13.7787V13.7737C2.29307 12.7893 2.28057 12.4856 2.28057 9.99057C2.28057 7.49432 2.29307 7.18994 2.32807 6.19369C2.33994 5.56432 2.45869 4.96619 2.66807 4.41244L2.65619 4.44932C2.81057 4.02494 3.05119 3.66369 3.35807 3.37182L3.35932 3.37057C3.65182 3.06307 4.01244 2.82369 4.41682 2.67557L4.43619 2.66932C4.95057 2.47057 5.54494 2.35119 6.16619 2.34057H6.17057C7.16619 2.30557 7.45932 2.29369 9.96557 2.29369L9.99994 2.31494ZM9.99994 0.627441C7.45369 0.627441 7.13619 0.639316 6.13619 0.683691C5.31432 0.701191 4.53494 0.859941 3.81369 1.13557L3.86119 1.11994C3.21119 1.36807 2.65744 1.73619 2.20119 2.19994L2.20057 2.20057C1.73494 2.65682 1.36744 3.21119 1.12994 3.82994L1.11932 3.86119C0.859316 4.53494 0.700566 5.31494 0.683691 6.12869V6.13619C0.636816 7.13619 0.627441 7.45369 0.627441 9.99994C0.627441 12.5462 0.639316 12.8637 0.683691 13.8637C0.701191 14.6856 0.859941 15.4649 1.13557 16.1862L1.11994 16.1387C1.61744 17.4018 2.59807 18.3824 3.82869 18.8687L3.86119 18.8799C4.53494 19.1393 5.31494 19.2981 6.12869 19.3156H6.13619C7.13619 19.3624 7.45369 19.3718 9.99994 19.3718C12.5462 19.3718 12.8637 19.3599 13.8637 19.3156C14.6856 19.2974 15.4649 19.1393 16.1862 18.8637L16.1387 18.8799C17.4018 18.3824 18.3824 17.4018 18.8687 16.1712L18.8799 16.1387C19.1399 15.4649 19.2981 14.6849 19.3156 13.8712V13.8637C19.3624 12.8637 19.3718 12.5462 19.3718 9.99994C19.3718 7.45369 19.3599 7.13619 19.3156 6.13619C19.2974 5.31432 19.1393 4.53494 18.8637 3.81369L18.8799 3.86119C18.6312 3.21119 18.2637 2.65744 17.7993 2.20119L17.7987 2.20057C17.3424 1.73494 16.7881 1.36744 16.1693 1.12994L16.1381 1.11932C15.4643 0.859316 14.6843 0.700566 13.8706 0.683691H13.8631C12.8631 0.636816 12.5456 0.627441 9.99932 0.627441H9.99994Z" fill="white"/>
</g>
<defs>
<clipPath id="clip0_142_25">
<rect width="20" height="20" fill="white"/>
</clipPath>
</defs>
</svg>
