<svg width="24" height="24" viewBox="0 0 28 28" fill="none" xmlns="http://www.w3.org/2000/svg">
    <path
        d="M23.7929 25.2071C24.1834 25.5976 24.8166 25.5976 25.2071 25.2071C25.5976 24.8166 25.5976 24.1834 25.2071 23.7929L23.7929 25.2071ZM18.3484 19.7624L23.7929 25.2071L25.2071 23.7929L19.7627 18.3482L18.3484 19.7624ZM12.3889 20.2775C8.03198 20.2775 4.5 16.7456 4.5 12.3886H2.5C2.5 17.8501 6.92741 22.2775 12.3889 22.2775V20.2775ZM20.2778 12.3886C20.2778 16.7456 16.7458 20.2775 12.3889 20.2775V22.2775C17.8504 22.2775 22.2778 17.8501 22.2778 12.3886H20.2778ZM12.3889 4.49976C16.7458 4.49976 20.2778 8.03173 20.2778 12.3886H22.2778C22.2778 6.92716 17.8504 2.49976 12.3889 2.49976V4.49976ZM12.3889 2.49976C6.92741 2.49976 2.5 6.92716 2.5 12.3886H4.5C4.5 8.03173 8.03198 4.49976 12.3889 4.49976V2.49976Z"
        fill="#ffffff" />
</svg>