<svg width="20" height="21" viewBox="0 0 20 21" fill="none" xmlns="http://www.w3.org/2000/svg">
<g id="telegram-communication-chat-interaction-network-connection 1">
<g id="Layer_2">
<g id="Group">
<path id="Vector" d="M17.7447 2.92837C15.2839 3.94757 4.7323 8.31817 1.8169 9.50937C-0.138303 10.2724 1.0063 10.9878 1.0063 10.9878C1.0063 10.9878 2.6753 11.56 4.1061 11.9892C5.5367 12.4184 6.2997 11.9416 6.2997 11.9416L13.0237 7.41117C15.4081 5.78977 14.8359 7.12497 14.2635 7.69737C13.0237 8.93737 10.9731 10.8924 9.2563 12.4662C8.4933 13.1338 8.8747 13.706 9.2087 13.9922C10.4485 15.0414 13.8345 17.1874 14.0251 17.3304C15.0325 18.0436 17.0141 19.0702 17.3155 16.9012L18.5077 9.41417C18.8893 6.88677 19.2707 4.54997 19.3183 3.88237C19.4615 2.26077 17.7447 2.92837 17.7447 2.92837Z" fill="#1B92D1"/>
</g>
</g>
</g>
</svg>
