<svg width="24" height="24" viewBox="0 0 24 24" fill="none" xmlns="http://www.w3.org/2000/svg">
<mask id="mask0_273_13" style="mask-type:luminance" maskUnits="userSpaceOnUse" x="1" y="1" width="22" height="22">
<path d="M23 1H1V23H23V1Z" fill="white"/>
</mask>
<g mask="url(#mask0_273_13)">
<path fill-rule="evenodd" clip-rule="evenodd" d="M10.5723 3.2406C10.2356 4.33668 9.544 6.73438 9.15755 9.09653C10.1605 9.25844 11.1403 9.36192 12 9.36192C12.8597 9.36192 13.8395 9.25844 14.8425 9.09653C14.456 6.73438 13.7644 4.33668 13.4277 3.2406C12.9633 3.16553 12.4865 3.12646 12 3.12646C11.5135 3.12646 11.0367 3.16553 10.5723 3.2406ZM15.0559 3.66652C15.4256 4.94625 15.9378 6.89259 16.2577 8.83509C17.6387 8.55061 18.9416 8.20339 19.8879 7.931C18.8737 5.96927 17.1491 4.4344 15.0559 3.66652ZM20.4452 9.26772C19.4454 9.55876 17.9971 9.94967 16.4545 10.2636C16.5187 10.86 16.5567 11.4462 16.5567 12C16.5567 12.8081 16.4758 13.6877 16.3491 14.572C18.1957 14.187 19.8896 13.6949 20.7594 13.4277C20.8345 12.9633 20.8735 12.4865 20.8735 12C20.8735 11.0458 20.7232 10.1277 20.4452 9.26772ZM20.3335 15.0559C19.2569 15.3668 17.7099 15.7784 16.0915 16.0915C15.7784 17.7099 15.3668 19.2569 15.0559 20.3335C17.498 19.4377 19.4377 17.498 20.3335 15.0559ZM13.4278 20.7594C13.6949 19.8896 14.187 18.1957 14.572 16.3491C13.6877 16.4758 12.8081 16.5567 12 16.5567C11.1919 16.5567 10.3123 16.4758 9.42804 16.3491C9.81303 18.1957 10.3051 19.8896 10.5723 20.7594C11.0367 20.8345 11.5135 20.8735 12 20.8735C12.4865 20.8735 12.9633 20.8345 13.4278 20.7594ZM8.9441 20.3335C8.63315 19.2569 8.22159 17.7099 7.90853 16.0915C6.29007 15.7784 4.74307 15.3668 3.6665 15.0559C4.56237 17.498 6.50198 19.4377 8.9441 20.3335ZM3.2406 13.4277C4.1104 13.6949 5.80426 14.187 7.65086 14.572C7.52419 13.6877 7.44331 12.8081 7.44331 12C7.44331 11.4462 7.48127 10.86 7.54551 10.2636C6.00288 9.94967 4.55464 9.55876 3.55486 9.26772C3.27684 10.1277 3.12646 11.0458 3.12646 12C3.12646 12.4865 3.16553 12.9633 3.2406 13.4277ZM4.11212 7.931C5.05837 8.20339 6.36126 8.55061 7.74228 8.83509C8.06215 6.89258 8.57444 4.94625 8.94407 3.66652C6.85092 4.4344 5.12627 5.96927 4.11212 7.931ZM8.96514 10.5231C8.91209 11.0415 8.88227 11.5387 8.88227 12C8.88227 12.8616 8.98622 13.8443 9.14903 14.851C10.1556 15.0138 11.1384 15.1178 12 15.1178C12.8616 15.1178 13.8443 15.0138 14.851 14.851C15.0138 13.8443 15.1178 12.8616 15.1178 12C15.1178 11.5387 15.0879 11.0415 15.0349 10.5231C13.9961 10.6894 12.9486 10.8009 12 10.8009C11.0514 10.8009 10.0038 10.6894 8.96514 10.5231ZM9.86667 1.90858C10.5556 1.76361 11.2693 1.6875 12 1.6875C12.7307 1.6875 13.4444 1.76361 14.1334 1.90858C17.5099 2.61908 20.2758 4.97922 21.5517 8.10576C22.0425 9.30826 22.3125 10.6234 22.3125 12C22.3125 12.7307 22.2364 13.4444 22.0914 14.1334C21.2531 18.1175 18.1175 21.2531 14.1334 22.0914C13.4444 22.2364 12.7307 22.3125 12 22.3125C11.2693 22.3125 10.5556 22.2364 9.86667 22.0914C5.88257 21.2531 2.74691 18.1175 1.90858 14.1334C1.76361 13.4444 1.6875 12.7307 1.6875 12C1.6875 10.6224 1.958 9.30621 2.44946 8.10294C3.72588 4.97781 6.49107 2.61887 9.86667 1.90858Z" fill="#2F88FF"/>
</g>
</svg>
