<svg width="65" height="64" viewBox="0 0 65 64" fill="none" xmlns="http://www.w3.org/2000/svg">
<path d="M30.4404 3.0681L4.06355 29.4396C2.64548 30.8574 2.64548 33.1474 4.06355 34.5651L30.4404 60.9367C31.8585 62.3544 34.1489 62.3544 35.567 60.9367L46.6264 49.8795C47.8964 48.6097 47.8964 46.5511 46.6264 45.2814C45.3565 44.0117 43.2974 44.0117 42.0274 45.2814L33.6433 53.6638C33.2904 54.0166 32.7547 54.0166 32.4018 53.6638L11.3379 32.6042C10.985 32.2513 10.985 31.7158 11.3379 31.3629L32.4018 10.3033C32.7547 9.95044 33.2904 9.95044 33.6433 10.3033L42.0274 18.6857C43.2974 19.9554 45.3565 19.9554 46.6264 18.6857C47.8964 17.416 47.8964 15.3574 46.6264 14.0876L35.5682 3.03163C34.1443 1.64453 31.8531 1.65576 30.4404 3.0681Z" fill="url(#paint0_linear_52_49)"/>
<path d="M30.4404 3.0681L4.06355 29.4396C2.64548 30.8574 2.64548 33.1474 4.06355 34.5651L30.4404 60.9367C31.8585 62.3544 34.1489 62.3544 35.567 60.9367L46.6264 49.8795C47.8964 48.6097 47.8964 46.5511 46.6264 45.2814C45.3565 44.0117 43.2974 44.0117 42.0274 45.2814L33.6433 53.6638C33.2904 54.0166 32.7547 54.0166 32.4018 53.6638L11.3379 32.6042C10.985 32.2513 10.985 31.7158 11.3379 31.3629L32.4018 10.3033C33.2806 9.54521 34.7145 8.00967 36.8203 7.65053C38.3852 7.38363 40.0961 7.97108 41.953 9.41288C40.7115 8.1717 38.5833 6.04461 35.5682 3.03163C34.1443 1.64453 31.8531 1.65576 30.4404 3.0681Z" fill="url(#paint1_linear_52_49)"/>
<path d="M49.1795 42.8288C50.4494 44.0985 52.5085 44.0985 53.7785 42.8288L61.9365 34.6724C63.3545 33.2547 63.3545 30.9647 61.9366 29.5471L53.7075 21.3488C52.4345 20.0806 50.3748 20.0824 49.1041 21.3529C47.8341 22.6226 47.8341 24.6813 49.1041 25.951L54.6621 31.5079C55.015 31.8607 55.015 32.3963 54.6621 32.7492L49.1795 38.2307C47.9095 39.5004 47.9095 41.5591 49.1795 42.8288Z" fill="url(#paint2_linear_52_49)"/>
<path d="M33.1354 39.2545C37.0687 39.2545 40.2572 36.0667 40.2572 32.1342C40.2572 28.2018 37.0687 25.0139 33.1354 25.0139C29.2022 25.0139 26.0137 28.2018 26.0137 32.1342C26.0137 36.0667 29.2022 39.2545 33.1354 39.2545Z" fill="url(#paint3_linear_52_49)"/>
<defs>
<linearGradient id="paint0_linear_52_49" x1="2771.45" y1="2.00015" x2="5278.87" y2="1532.29" gradientUnits="userSpaceOnUse">
<stop stop-color="#4285EB"/>
<stop offset="1" stop-color="#2EC7FF"/>
</linearGradient>
<linearGradient id="paint1_linear_52_49" x1="3107.66" y1="1.99997" x2="1868.16" y2="6404.08" gradientUnits="userSpaceOnUse">
<stop stop-color="#29CDFF"/>
<stop offset="0.378601" stop-color="#148EFF"/>
<stop offset="1" stop-color="#0A60FF"/>
</linearGradient>
<linearGradient id="paint2_linear_52_49" x1="1082.95" y1="-282.97" x2="-529.316" y2="2236.92" gradientUnits="userSpaceOnUse">
<stop stop-color="#FA816E"/>
<stop offset="0.414726" stop-color="#F74A5C"/>
<stop offset="1" stop-color="#F51D2C"/>
</linearGradient>
<linearGradient id="paint3_linear_52_49" x1="996.396" y1="-483.242" x2="459.793" y2="1661.92" gradientUnits="userSpaceOnUse">
<stop stop-color="#FA8E7D"/>
<stop offset="0.512635" stop-color="#F74A5C"/>
<stop offset="1" stop-color="#F51D2C"/>
</linearGradient>
</defs>
</svg>
