<svg width="65" height="64" viewBox="0 0 65 64" fill="none" xmlns="http://www.w3.org/2000/svg">
<path d="M12.304 54.402L7.81201 4H57.188L52.69 54.394L32.47 60L12.304 54.402Z" fill="#1572B6"/>
<path d="M32.5 55.716L48.84 51.186L52.684 8.12201H32.5V55.716Z" fill="#33A9DC"/>
<path d="M32.5 26.382H40.68L41.244 20.052H32.5V13.87H32.522H48L47.852 15.528L46.334 32.564H32.5V26.382Z" fill="white"/>
<path d="M32.538 42.436L32.51 42.444L25.626 40.584L25.186 35.654H21.84H18.98L19.846 45.36L32.508 48.876L32.538 48.868V42.436Z" fill="#EBEBEB"/>
<path d="M40.1541 32.302L39.4101 40.58L32.5161 42.44V48.872L45.1881 45.36L45.2821 44.316L46.3561 32.302H40.1541Z" fill="white"/>
<path d="M32.5219 13.87V17.71V20.036V20.052H17.6099H17.5899L17.4659 18.662L17.1839 15.528L17.0359 13.87H32.5219Z" fill="#EBEBEB"/>
<path d="M32.4999 26.382V30.222V32.548V32.564H25.7219H25.7019L25.5779 31.174L25.2979 28.04L25.1499 26.382H32.4999Z" fill="#EBEBEB"/>
</svg>
