<svg width="65" height="64" viewBox="0 0 65 64" fill="none" xmlns="http://www.w3.org/2000/svg">
<path fill-rule="evenodd" clip-rule="evenodd" d="M32.5 32C32.5 27.5818 36.0818 24 40.5 24C44.9182 24 48.5 27.5818 48.5 32C48.5 36.4182 44.9182 40 40.5 40C36.0818 40 32.5 36.4182 32.5 32Z" fill="#1ABCFE"/>
<path fill-rule="evenodd" clip-rule="evenodd" d="M16.5 48C16.5 43.5818 20.0817 40 24.5 40H32.5V48C32.5 52.4182 28.9182 56 24.5 56C20.0817 56 16.5 52.4182 16.5 48Z" fill="#0ACF83"/>
<path fill-rule="evenodd" clip-rule="evenodd" d="M32.5 8V24H40.5C44.9182 24 48.5 20.4182 48.5 16C48.5 11.5817 44.9182 8 40.5 8H32.5Z" fill="#FF7262"/>
<path fill-rule="evenodd" clip-rule="evenodd" d="M16.5 16C16.5 20.4182 20.0817 24 24.5 24H32.5V8H24.5C20.0817 8 16.5 11.5817 16.5 16Z" fill="#F24E1E"/>
<path fill-rule="evenodd" clip-rule="evenodd" d="M16.5 32C16.5 36.4182 20.0817 40 24.5 40H32.5V24H24.5C20.0817 24 16.5 27.5818 16.5 32Z" fill="#A259FF"/>
</svg>
