<svg width="65" height="64" viewBox="0 0 65 64" fill="none" xmlns="http://www.w3.org/2000/svg">
<path d="M60.5 4H4.5V60H60.5V4Z" fill="#FFCA28"/>
<path d="M38.5 50.5758L42.623 47.8474C42.9462 48.8626 44.9924 51.2736 47.577 51.2736C50.1616 51.2736 51.3616 49.862 51.3616 48.926C51.3616 46.3756 48.7224 45.4764 47.4548 45.0446C47.248 44.9742 47.078 44.9162 46.9616 44.8656C46.9018 44.8396 46.8116 44.805 46.6958 44.7608C45.286 44.2222 40.0846 42.235 40.0846 36.4746C40.0846 30.13 46.2076 29.4004 47.5924 29.4004C48.4982 29.4004 52.8538 29.5114 55.023 33.5878L51.023 36.3796C50.1462 34.603 48.6892 34.0162 47.7924 34.0162C45.577 34.0162 45.1154 35.6402 45.1154 36.3796C45.1154 38.454 47.5224 39.3838 49.5546 40.1688C50.0864 40.3742 50.5924 40.5696 51.023 40.7732C53.2384 41.82 56.5 43.5332 56.5 48.926C56.5 51.6272 54.2344 56.0004 48.5308 56.0004C40.8692 56.0004 38.8384 51.4006 38.5 50.5758Z" fill="#3E3E3E"/>
<path d="M18.5 51.1174L22.7974 48.3906C23.134 49.4052 24.4426 51.276 26.341 51.276C28.2396 51.276 29.2114 49.326 29.2114 48.3906V30.0004H34.4964V48.3906C34.582 50.9272 33.1752 56.0004 26.9664 56.0004C21.258 56.0004 18.8848 52.6078 18.5 51.1174Z" fill="#3E3E3E"/>
</svg>
