<svg width="65" height="64" viewBox="0 0 65 64" fill="none" xmlns="http://www.w3.org/2000/svg">
<path d="M37.8577 31.9518C37.8577 29.083 35.4591 26.757 32.4999 26.757C29.5411 26.757 27.1421 29.083 27.1421 31.9518C27.1421 34.821 29.5411 37.1468 32.4999 37.1468C35.4591 37.1468 37.8577 34.821 37.8577 31.9518Z" fill="#53C1DE"/>
<path fill-rule="evenodd" clip-rule="evenodd" d="M49.9008 22.3074C51.0322 17.8496 52.4544 9.58296 47.4408 6.78032C42.4506 3.9899 35.9568 9.33686 32.5278 12.5464C29.1088 9.36884 22.4326 4.04474 17.4233 6.85628C12.435 9.65606 13.9733 17.7856 15.1298 22.2714C10.4766 23.5528 2.5 26.3128 2.5 31.9518C2.5 37.5748 10.4683 40.5776 15.094 41.8578C13.9332 46.3684 12.4719 54.3818 17.4665 57.1754C22.4946 59.9864 29.15 54.789 32.6108 51.5444C36.0618 54.7728 42.4932 60.0042 47.4844 57.2028C52.4912 54.3926 51.1872 46.2368 50.0306 41.725C54.5146 40.442 62.5 37.5046 62.5 31.9518C62.5 26.367 54.4806 23.5846 49.9008 22.3074ZM49.3324 39.334C48.573 37.0032 47.548 34.5246 46.2942 31.9642C47.491 29.4642 48.4762 27.0176 49.2144 24.7018C52.5718 25.6456 59.937 27.8026 59.937 31.9518C59.937 36.14 52.8692 38.3174 49.3324 39.334ZM46.2 55.052C42.476 57.142 36.9442 52.1392 34.3956 49.7618C36.0864 47.9688 37.776 45.8844 39.425 43.5698C42.3258 43.3204 45.066 42.9124 47.5512 42.3554C48.3652 45.5468 49.9404 52.9526 46.2 55.052ZM18.7472 55.0222C15.0229 52.94 16.7252 45.7892 17.5791 42.4666C20.0367 42.9938 22.7572 43.373 25.6648 43.6016C27.3246 45.8664 29.0632 47.9482 30.8152 49.7714C28.6506 51.8016 22.489 57.114 18.7472 55.0222ZM5.06298 31.9518C5.06298 27.748 12.3841 25.6066 15.8181 24.6652C16.569 27.033 17.5539 29.5088 18.7425 32.0124C17.5385 34.5532 16.5395 37.0682 15.7817 39.464C12.5074 38.5552 5.06298 36.1582 5.06298 31.9518ZM18.7074 9.00708C22.447 6.90832 28.2494 12.0197 30.7318 14.3203C28.9888 16.1351 27.2662 18.2012 25.6206 20.453C22.7988 20.7066 20.0975 21.1138 17.6142 21.6594C16.6825 18.0414 14.9718 11.1036 18.7074 9.00708ZM41.2586 23.1542C43.173 23.3884 45.0072 23.7 46.7294 24.0812C46.2124 25.688 45.568 27.3682 44.809 29.0906C43.7088 27.0666 42.5278 25.0832 41.2586 23.1542ZM32.5286 16.0962C33.7108 17.3379 34.8948 18.7246 36.0596 20.229C33.697 20.1206 31.3306 20.1202 28.968 20.2274C30.1338 18.737 31.328 17.3524 32.5286 16.0962ZM20.213 29.0888C19.4666 27.3724 18.828 25.6848 18.3064 24.055C20.0184 23.6836 21.844 23.38 23.746 23.1496C22.4732 25.0744 21.2942 27.057 20.213 29.0888ZM23.8006 40.9314C21.8358 40.7188 19.9825 40.4306 18.2711 40.0694C18.8009 38.411 19.4536 36.687 20.2159 34.9336C21.312 36.9866 22.509 38.9884 23.8006 40.9314ZM32.5996 47.983C31.3848 46.712 30.173 45.3062 28.9896 43.7942C31.3656 43.8846 33.7462 43.8848 36.122 43.782C34.9536 45.3216 33.7738 46.7294 32.5996 47.983ZM44.8334 34.8444C45.6354 36.6168 46.3114 38.3314 46.8484 39.9618C45.1086 40.3468 43.2304 40.6568 41.2514 40.887C42.53 38.9214 43.7298 36.9072 44.8334 34.8444ZM37.9946 41.1882C34.3602 41.44 30.7032 41.4372 27.0676 41.2088C25.0018 38.283 23.1628 35.206 21.5754 32.0116C23.1552 28.8238 24.9808 25.7528 27.0368 22.8316C30.675 22.565 34.3356 22.5642 37.9738 22.8332C40.0122 25.7542 41.835 28.8172 43.4514 31.9762C41.8542 35.1624 40.019 38.2396 37.9946 41.1882ZM46.1606 8.9332C49.9012 11.0251 48.2362 18.4545 47.419 21.6852C44.9298 21.1282 42.2266 20.7138 39.3966 20.4562C37.7478 18.1801 36.0396 16.1104 34.3248 14.319C36.839 11.9688 42.4562 6.86178 46.1606 8.9332Z" fill="#53C1DE"/>
</svg>
