<svg width="65" height="64" viewBox="0 0 65 64" fill="none" xmlns="http://www.w3.org/2000/svg">
<path d="M48.7439 6.45825C57.2991 11.7429 63 21.2057 63 32C63 48.5685 49.5685 62 33 62C29.3869 62 25.923 61.3613 22.7159 60.1896L22.3733 60.062L22.9312 59.8829L23.6484 59.6476L24.0022 59.5294L24.3529 59.4108L25.0447 59.1725L25.7239 58.9326L26.3904 58.6911L27.0443 58.4481L27.3664 58.3259L28.0013 58.0804C28.6717 57.8177 29.3206 57.5522 29.9479 57.2838L30.4143 57.082L30.9859 56.8281C31.2371 56.715 31.4846 56.6013 31.7284 56.4871L32.0912 56.3154L32.6249 56.0564L32.887 55.9262L33.146 55.7956L33.6545 55.5331C37.9227 53.2942 40.8227 50.862 42.3623 48.1953C45.6244 42.5451 42.7754 36.5071 34.5968 30.3514L33.9312 29.8524L33.5269 29.5424L33.1344 29.2347L32.7536 28.9293L32.3845 28.6263L32.2043 28.4757L32.027 28.3257L31.6812 28.0273L31.4294 27.805L31.184 27.5841L30.867 27.2914L30.5615 27.0011L30.2673 26.713L30.1245 26.5698L29.9846 26.4272L29.7132 26.1436C26.4802 22.7067 25.7582 19.7645 27.226 17.2223C27.973 15.9284 29.2682 14.6562 31.1092 13.4173L31.3327 13.2688L31.6847 13.0423C31.8439 12.9418 32.0067 12.8415 32.1731 12.7415L32.4255 12.5916L32.8143 12.3675L33.2153 12.1441L33.524 11.9772L33.8397 11.8107L34.2713 11.5895C34.5996 11.4239 34.9382 11.2591 35.2871 11.095L35.6395 10.9311L36.12 10.7135L36.3648 10.605L36.8636 10.3888L37.1176 10.2811L37.6348 10.0663L37.8979 9.95927L38.4334 9.74597L38.7057 9.6397L39.2595 9.42791L39.8255 9.21716L40.113 9.11217L40.6973 8.90299L41.2937 8.69488L41.9024 8.48785L42.2113 8.38475L42.8382 8.17938L43.4773 7.97513L44.1286 7.77202L44.7921 7.57006L45.4677 7.36927L46.3294 7.11996L47.21 6.87253L48.2919 6.57815L48.7439 6.45825ZM33 2C36.6483 2 40.1445 2.65123 43.3787 3.84378L43.7242 3.97362L43.5051 4.03994L42.4366 4.36931L42.0867 4.47996L41.3963 4.70254L40.7186 4.92685L40.0534 5.15292L39.4008 5.38074L38.7608 5.61035L38.4455 5.72583L37.671 6.0165L36.9162 6.31002L36.3264 6.54691L36.0363 6.66605L35.4654 6.90574C29.6308 9.39217 25.807 12.1801 23.9784 15.3473C20.7869 20.8751 23.6816 26.8342 31.8611 32.9882L32.5266 33.4872L32.9308 33.7975L33.3231 34.1055L33.5148 34.2587L33.8895 34.5634L34.1627 34.7905L34.4294 35.0164L34.7747 35.3157L34.943 35.4645L35.2709 35.7605C35.4498 35.9244 35.6234 36.0873 35.7916 36.2492L36.04 36.4913L36.3975 36.8518L36.7372 37.2089C39.9564 40.6697 40.6444 43.6707 39.1147 46.3203C38.1249 48.0348 36.235 49.7225 33.4495 51.3609L33.1938 51.5097L32.7794 51.7445L32.3526 51.9785C32.1121 52.1084 31.8659 52.2379 31.6139 52.367L31.2318 52.5605L30.7618 52.792L30.2796 53.0227L29.785 53.2526L29.5331 53.3673L29.0201 53.596L28.4948 53.8239L27.9571 54.0509L27.6836 54.1641L27.1275 54.3899L26.8449 54.5025L26.5591 54.6148L25.9784 54.8388L25.3854 55.0619L24.78 55.2841L24.1624 55.5053L23.5325 55.7256L23.213 55.8354L22.5646 56.0542L22.2359 56.1632L21.5691 56.3806L20.8901 56.5969L20.024 56.8659L19.1388 57.1332L18.4168 57.3459L17.4092 57.6357C8.76901 52.3697 3 42.8586 3 32C3 15.4315 16.4315 2 33 2Z" fill="#0080FF"/>
</svg>
