<svg width="65" height="64" viewBox="0 0 65 64" fill="none" xmlns="http://www.w3.org/2000/svg">
<path d="M18.5 27.4C20.3667 19.9333 25.0333 16.2 32.5 16.2C43.7 16.2 45.1 24.6 50.7 26C54.4333 26.9333 57.7 25.5333 60.5 21.8C58.6333 29.2667 53.9667 33 46.5 33C35.3 33 33.9 24.6 28.3 23.2C24.5667 22.2667 21.3 23.6667 18.5 27.4ZM4.5 44.2C6.36667 36.7333 11.0333 33 18.5 33C29.7 33 31.1 41.4 36.7 42.8C40.4333 43.7333 43.7 42.3333 46.5 38.6C44.6333 46.0667 39.9667 49.8 32.5 49.8C21.3 49.8 19.9 41.4 14.3 40C10.5667 39.0667 7.3 40.4667 4.5 44.2Z" fill="#44A8B3"/>
</svg>
