<svg width="384" height="384" viewBox="0 0 3000 3000" fill="none" xmlns="http://www.w3.org/2000/svg">
    <g clip-path="url(#clip0_1052_2)">
        <mask id="mask0_1052_2" style="mask-type:luminance" maskUnits="userSpaceOnUse" x="0" y="0" width="3000"
            height="3000">
            <path d="M3000 0H0V3000H3000V0Z" fill="white" />
        </mask>
        <g mask="url(#mask0_1052_2)">
            <path
                d="M2234.87 1929.12H1118.92V789.671C1118.92 771.708 1133.48 757.147 1151.44 757.147H2202.35C2220.31 757.147 2234.87 771.708 2234.87 789.671V1929.12Z"
                fill="#F2F2F2" />
            <path
                d="M2487.67 2371.1H1111.52C1066.07 2371.1 1028.13 2336.79 1023.6 2291.72L946.931 1301.43C944.603 1278.37 962.729 1258.31 985.91 1258.31H1759.39C1765.48 1258.31 1771.18 1255.58 1774.93 1250.8L1813.13 1202.5C1818.3 1195.89 1826.34 1192.01 1834.75 1192.01H2272.97C2294.2 1192.01 2312.08 1207.55 2315.19 1228.52L2436.65 2291.72L2437.55 2298.32L2487.67 2371.1Z"
                fill="#FFB902" />
            <path
                d="M2487.67 2371.1H1111.52C1066.07 2371.1 1028.13 2336.79 1023.6 2291.72H2436.66L2437.56 2298.32L2487.67 2371.1Z"
                fill="#F9AE06" />
            <path
                d="M2323.33 1284.11H2642.93L2570.78 2295.42C2566.8 2338.31 2530.81 2371.12 2487.72 2371.12C2446.17 2371.12 2410.95 2340.54 2405.13 2299.4L2323.33 1284.11Z"
                fill="#F2A807" />
            <path
                d="M1593.06 1715.01C1566.07 1681.06 1524.39 1659.3 1477.63 1659.3C1430.89 1659.3 1389.21 1681.06 1362.22 1714.99C1363.42 1652.27 1414.63 1601.83 1477.63 1601.83C1540.63 1601.82 1591.86 1652.29 1593.06 1715.01Z"
                fill="#2D3250" />
            <path
                d="M2005.16 1715.01C1978.16 1681.06 1936.49 1659.3 1889.73 1659.3C1806.77 1659.3 1801.31 1681.06 1774.31 1714.99C1775.52 1652.27 1826.73 1601.83 1889.73 1601.83C1952.73 1601.82 2003.96 1652.29 2005.16 1715.01Z"
                fill="#2D3250" />
            <path
                d="M1676.9 1878.6C1776.43 1878.6 1864.79 1941.87 1896.77 2036.02C1899.11 2042.9 1895.43 2050.37 1888.55 2052.7C1881.68 2055.04 1874.21 2051.36 1871.88 2044.48C1843.52 1960.99 1765.16 1904.89 1676.89 1904.89C1588.64 1904.89 1510.28 1960.99 1481.9 2044.48C1479.57 2051.36 1472.11 2055.04 1465.23 2052.7C1458.36 2050.37 1454.68 2042.9 1457.01 2036.02C1489.02 1941.86 1577.38 1878.6 1676.9 1878.6Z"
                fill="#2D3250" />
            <path d="M635.309 2277.07L683.594 2275.35L685.822 2337.86L637.536 2339.58L635.309 2277.07Z"
                fill="#FEB582" />
            <path
                d="M687.995 2311.06C687.995 2311.06 749.309 2350.11 752.809 2353.22C756.618 2356.61 756.227 2358.8 756.04 2360.62C755.47 2366.2 750.717 2371 744.523 2371.1L632.363 2371.12C631.541 2371.12 630.841 2370.52 630.71 2369.7C630.181 2366.47 629.766 2363.44 629.457 2360.61C627.162 2339.76 630.466 2318.52 633.527 2311.67C633.852 2310.94 634.878 2310.96 635.203 2311.68C644.702 2332.69 675.119 2330.89 684.511 2312.32C685.163 2311.04 686.685 2310.48 687.995 2311.06Z"
                fill="#2D3250" />
            <path
                d="M756.04 2360.62C755.47 2366.2 750.716 2371 744.522 2371.1L632.363 2371.12C631.541 2371.12 630.84 2370.52 630.71 2369.7C630.18 2366.46 629.765 2363.44 629.456 2360.61H756.04V2360.62Z"
                fill="#424769" />
            <path d="M455.724 2275.25L504.015 2276.76L502.057 2339.28L453.766 2337.77L455.724 2275.25Z"
                fill="#FEB582" />
            <path
                d="M506.089 2311.06C506.089 2311.06 567.403 2350.11 570.903 2353.22C574.712 2356.61 574.321 2358.8 574.134 2360.62C573.564 2366.2 568.811 2371 562.617 2371.1L450.457 2371.12C449.635 2371.12 448.935 2370.52 448.804 2369.7C448.275 2366.47 447.86 2363.44 447.551 2360.61C445.256 2339.76 448.56 2318.52 451.621 2311.67C451.946 2310.94 452.972 2310.96 453.297 2311.68C462.796 2332.69 493.213 2330.89 502.605 2312.32C503.257 2311.04 504.779 2310.48 506.089 2311.06Z"
                fill="#2D3250" />
            <path
                d="M574.134 2360.62C573.564 2366.2 568.81 2371 562.616 2371.1L450.457 2371.12C449.635 2371.12 448.934 2370.52 448.804 2369.7C448.275 2366.46 447.859 2363.44 447.55 2360.61H574.134V2360.62Z"
                fill="#424769" />
            <path
                d="M695.98 2288.26L625.095 2289.88L564.408 1760.92C563.96 1758.02 559.785 1757.98 559.272 1760.87L516.858 2289.07L440.324 2289.88L449.798 1649.83L548.455 1658.53L547.6 1653.01L670.772 1634.18L695.98 2288.26Z"
                fill="#2D3250" />
            <path
                d="M691.71 1295.24V1406.19C691.49 1411.84 687.43 1551.8 680.29 1689.44C590.41 1706.35 527.45 1703.83 440.32 1680C440.32 1680 451.3 1585.94 441.72 1439.33C441 1428.43 440.78 1417.51 441.03 1406.59L374.68 1457.86L432.08 1557.37L392.85 1602.58L322.94 1508.64L293.29 1464.42C281.85 1447.3 285.22 1424.26 301.14 1411.2L434 1301.92C444.73 1293.9 457.08 1288.34 470.18 1285.59L510.28 1277.16L522.58 1274.58C526.48 1273.92 530.38 1273.38 534.3 1272.9C555.68 1270.32 577.32 1270.65 598.62 1273.75C605.15 1274.74 611.66 1275.95 618.1 1277.43L618.38 1277.54L691.71 1295.24Z"
                fill="#39965F" />
            <path
                d="M533.25 1244.82L534.87 1283.04C535.594 1300.11 549.553 1313.63 566.638 1313.8C585.561 1314 600.554 1297.88 598.991 1279.02L596.753 1252.05L533.25 1244.82Z"
                fill="#FEB582" />
            <path
                d="M618.388 1277.53L594.401 1315.3L574.728 1312.27L598.561 1273.74C605.096 1274.71 611.648 1275.94 618.118 1277.44L618.388 1277.53Z"
                fill="#39965F" />
            <path
                d="M559.939 1313.32L540.893 1319.1L510.297 1277.15L522.58 1274.57C526.47 1273.91 530.564 1273.36 534.463 1272.89L559.939 1313.32Z"
                fill="#39965F" />
            <path d="M582.208 1310.33L569.348 1321.96L554.974 1312.25L567.834 1300.62L582.208 1310.33Z" fill="white" />
            <path
                d="M558.523 1313.16C558.523 1313.16 561.689 1463.43 536.132 1521.4L563.097 1563.66L595.678 1524.75C595.678 1524.75 580.939 1319.64 578.122 1312.34L558.523 1313.16Z"
                fill="white" />
            <path
                d="M473.174 1600.47C475.591 1602.64 475.811 1606.35 473.638 1608.79C472.482 1610.09 470.871 1610.74 469.251 1610.74C467.875 1610.74 466.475 1610.27 465.352 1609.25L465.767 1609.64C468.51 1612.08 468.73 1616.25 466.321 1618.97C465.027 1620.43 463.22 1621.19 461.38 1621.19C459.842 1621.19 458.279 1620.65 457.017 1619.52L454.633 1617.4C456.855 1619.88 456.912 1623.69 454.657 1626.22C453.338 1627.7 451.532 1628.44 449.716 1628.44C448.154 1628.44 446.591 1627.88 445.321 1626.76L443.701 1625.34C446.282 1627.62 446.501 1631.57 444.222 1634.12C442.985 1635.52 441.26 1636.24 439.559 1636.24H439.534C438.053 1636.24 436.596 1635.71 435.416 1634.64L409.557 1611.61L398.333 1596.29L429.132 1560.82C432.616 1562.75 438.216 1564.34 444.092 1565.55C452.272 1567.22 460.973 1568.15 465.206 1568.24C469.487 1568.54 473.524 1568.52 475.307 1571.28C475.909 1572.19 476.267 1573.18 476.43 1574.2C477.065 1578.18 473.964 1581.8 469.951 1582.38L453.07 1582.57L473.174 1600.47Z"
                fill="#FEB582" />
            <path
                d="M577.283 1189.73C573.021 1190.35 569.11 1191.25 566.763 1188.94C565.984 1188.17 565.408 1187.28 565.035 1186.31C563.558 1182.56 565.832 1178.35 569.608 1176.94L586.048 1173.13L562.579 1159.96C559.752 1158.37 558.738 1154.78 560.331 1151.95C561.915 1149.13 565.498 1148.12 568.333 1149.71L577.291 1154.73L567.825 1149.41C564.646 1147.62 563.522 1143.6 565.3 1140.42C567.084 1137.24 571.109 1136.11 574.28 1137.9L584.686 1143.75L577.669 1139.81C574.49 1138.03 573.36 1134.01 575.144 1130.82C576.928 1127.65 580.953 1126.51 584.132 1128.3L589.415 1131.26L586.02 1129.36C583.013 1127.67 581.948 1123.87 583.629 1120.87C585.318 1117.86 589.115 1116.8 592.12 1118.48L597.638 1121.58C614.045 1130.79 629.428 1141.71 643.528 1154.17L621.673 1193.11L618.837 1191.52L616.426 1190.17C609.239 1186.14 585.108 1188.19 577.283 1189.73Z"
                fill="#FEB582" />
            <path
                d="M830.879 1364.92L672.328 1439.12C640.855 1371.63 638.607 1319.3 691.299 1295.47L754.271 1300.63L611.523 1195.7L642.527 1138.29L843.522 1284.38C873.736 1306.33 866.366 1353.27 830.879 1364.92Z"
                fill="#39965F" />
            <path
                d="M511.536 1226.26C511.536 1226.26 516.919 1240.69 524.59 1246.44L520.252 1228L512.519 1220.27L511.536 1226.26Z"
                fill="#222824" />
            <path
                d="M511.505 1207.33C511.505 1207.33 513.976 1236.87 532.439 1256.87C543.764 1269.15 561.032 1273.32 577.104 1268.79C610.474 1259.38 620.904 1224.79 593.162 1151.8L529.112 1136.92L494.849 1167.93L511.505 1207.33Z"
                fill="#FEB582" />
            <path
                d="M511.761 1210.61C511.761 1210.61 517.646 1203.72 512.489 1192.59C523.69 1184.02 527.144 1172.54 515.735 1155.45C515.735 1155.45 580.719 1174.67 606.09 1153.56C606.09 1153.56 617.73 1142.32 605.142 1130.35C600.041 1113.61 591.996 1102.92 578.049 1104.35L561.721 1111.26C561.721 1111.26 534.043 1097.39 515.264 1110.08C515.264 1110.08 488.069 1124.74 486.447 1140.09C486.447 1140.09 464.456 1146.24 476.177 1171.29L497.496 1205.14L501.492 1214.96L511.761 1210.61Z"
                fill="#222824" />
            <path
                d="M518.075 1211.1C521.206 1218.49 519.236 1226.4 513.68 1228.75C508.124 1231.1 501.085 1227.01 497.951 1219.6C494.82 1212.21 496.79 1204.31 502.346 1201.96C507.902 1199.6 514.942 1203.7 518.075 1211.1Z"
                fill="#FEB582" />
            <path d="M2039.54 1376.58L2079.83 1337.48L2166.49 1426.77L2126.2 1465.87L2039.54 1376.58Z" fill="#2D3250" />
            <path
                d="M2642.05 1957.21C2612.36 1986.03 2564.75 1984.71 2536.7 1954.28L2083.54 1462.9L2164.66 1384.16L2642.29 1851.81C2671.85 1880.76 2671.74 1928.39 2642.05 1957.21Z"
                fill="#424769" />
            <path
                d="M2642.28 1851.81C2671.84 1880.75 2671.75 1928.38 2642.06 1957.2C2625.28 1973.48 2602.79 1980.14 2581.34 1977.38C2590.48 1973.92 2599.1 1968.58 2606.58 1961.32C2636.27 1932.5 2636.38 1884.88 2606.81 1855.94L2144.74 1403.5L2164.66 1384.17L2642.28 1851.81Z"
                fill="#525987" />
            <path
                d="M2093.44 745.937C1920.42 567.627 1635.57 563.407 1457.26 736.417C1278.95 909.497 1274.67 1194.35 1447.74 1372.66C1620.82 1550.97 1905.61 1555.19 2083.92 1382.17C2262.23 1209.1 2266.51 924.247 2093.44 745.937ZM2025.3 1321.71C1880.35 1462.38 1648.82 1458.93 1508.21 1313.98C1367.54 1169.09 1370.99 937.507 1515.88 796.887C1660.83 656.217 1892.35 659.667 2033.03 804.607C2173.64 949.577 2170.2 1181.03 2025.3 1321.71Z"
                fill="#424769" />
            <path
                d="M2093.47 745.951C2266.52 924.259 2262.25 1209.09 2083.94 1382.15C2052.41 1412.75 2017.54 1437.8 1980.57 1457.33C2003 1442.36 2024.4 1425.15 2044.44 1405.69C2222.73 1232.65 2227 947.815 2053.94 769.506C1911.48 622.722 1693.28 593.876 1521.12 684.792C1698.18 566.519 1939.85 587.674 2093.47 745.951Z"
                fill="#525987" />
            <g opacity="0.85">
                <path
                    d="M2025.3 1321.71C1880.35 1462.38 1648.82 1458.93 1508.21 1313.98C1367.54 1169.09 1370.99 937.507 1515.88 796.887C1660.83 656.217 1892.35 659.667 2033.03 804.607C2173.64 949.577 2170.2 1181.03 2025.3 1321.71Z"
                    fill="white" />
            </g>
        </g>
    </g>
    <defs>
        <clipPath id="clip0_1052_2">
            <rect width="3000" height="3000" fill="white" />
        </clipPath>
    </defs>
</svg>